<svg width="220" height="46" viewBox="0 0 220 46" fill="none" xmlns="http://www.w3.org/2000/svg">
<path d="M81.8391 3.41961H77.7526V20.0369H80.0078V13.9665H81.8391C85.5017 13.9665 87.4856 11.6096 87.4856 8.69306C87.4856 6.08177 85.5017 3.41961 81.8391 3.41961ZM81.7374 11.7452H80.0078V5.62395H81.7374C83.84 5.62395 85.1795 6.9635 85.1795 8.69306C85.1795 10.5583 83.84 11.7452 81.7374 11.7452ZM89.6221 20.0369H91.8604V1.04572H89.6221V20.0369ZM100.712 20.2234C104.289 20.2234 106.765 17.4087 106.765 14.1022C106.765 10.7957 104.289 7.98089 100.712 7.98089C97.1338 7.98089 94.6582 10.7957 94.6582 14.1022C94.6582 17.4087 97.1338 20.2234 100.712 20.2234ZM100.712 18.0021C98.4734 18.0021 96.9303 16.1878 96.9303 14.0852C96.9303 11.9826 98.4734 10.2022 100.712 10.2022C102.984 10.2022 104.459 11.9826 104.459 14.0852C104.459 16.1878 102.984 18.0021 100.712 18.0021ZM114.294 8.16741H111.852V4.9796H109.614V8.16741H108.088V10.3039H109.614V20.0369H111.852V10.3039H114.294V8.16741ZM141.61 20.0369L137.795 3.16527H137.456L132.234 15.7808L126.994 3.16527H126.655L123.009 20.0369H125.332L127.486 9.49001L132.064 20.2234H132.386L137.032 9.37131L139.338 20.0369H141.61ZM152.463 8.16741V10.0665C151.53 8.82871 150.157 7.99785 148.41 7.99785C145.104 7.99785 142.848 10.677 142.848 14.1022C142.848 17.5274 145.104 20.2065 148.41 20.2065C150.157 20.2065 151.53 19.3756 152.463 18.1378V20.0369H154.701V8.16741H152.463ZM148.783 18.036C146.647 18.036 145.154 16.2895 145.154 14.1022C145.154 11.9487 146.647 10.1852 148.783 10.1852C150.92 10.1852 152.463 12.0165 152.463 14.1022C152.463 16.1878 150.92 18.036 148.783 18.036ZM164.044 7.93002C162.416 7.93002 161.144 8.71002 160.466 9.82914V8.16741H158.228V20.0369H160.466V13.5595C160.466 11.2026 161.704 9.96479 163.366 9.96479C165.044 9.96479 166.248 11.2026 166.248 13.5595V20.0369H168.486V13.2204C168.486 9.69349 166.367 7.93002 164.044 7.93002ZM180.576 8.16741V10.0665C179.644 8.82871 178.27 7.99785 176.507 7.99785C173.217 7.99785 170.962 10.677 170.962 14.1022C170.962 17.5274 173.217 20.2065 176.507 20.2065C178.27 20.2065 179.644 19.3756 180.576 18.1378V20.0369H182.798V8.16741H180.576ZM176.897 18.036C174.76 18.036 173.251 16.2895 173.251 14.1022C173.251 11.9487 174.76 10.1852 176.897 10.1852C179.033 10.1852 180.576 12.0165 180.576 14.1022C180.576 16.1878 179.033 18.036 176.897 18.036ZM197.431 8.16741H195.21V10.0835C194.311 8.82871 192.921 7.99785 191.157 7.99785C187.851 7.99785 185.595 10.677 185.595 14.1022C185.595 17.5274 187.851 20.2065 191.157 20.2065C192.938 20.2065 194.345 19.3417 195.261 18.07V18.9686C195.261 21.5969 193.751 22.8347 191.564 22.8347C190.157 22.8347 188.648 22.2751 187.308 21.3425L187.291 23.6995C188.597 24.4286 189.987 24.9543 191.801 24.9543C194.616 24.9543 197.448 23.1738 197.448 19.5452L197.431 8.16741ZM191.53 18.036C189.394 18.036 187.901 16.2895 187.901 14.1022C187.901 11.9487 189.394 10.1852 191.53 10.1852C193.667 10.1852 195.21 12.0165 195.21 14.1022C195.21 16.1878 193.667 18.036 191.53 18.036ZM206.045 7.99785C202.552 7.99785 200.229 10.7957 200.229 14.1022C200.229 17.4256 202.501 20.2234 206.282 20.2234C207.893 20.2234 209.317 19.7826 210.318 19.0365V16.7813C209.182 17.5613 207.961 18.07 206.401 18.07C204.349 18.07 202.891 16.883 202.535 15.0008H211.59C211.861 11.2535 209.741 7.99785 206.045 7.99785ZM205.994 10.2361C207.707 10.2361 208.91 11.423 209.25 13.1526H202.552C202.908 11.44 204.197 10.2361 205.994 10.2361ZM216.558 10.2022V8.16741H214.32V20.0369H216.558V13.6443L216.575 13.7461C216.575 11.1857 218.321 10.287 220 10.5583V7.93002C218.406 7.93002 217.202 8.99827 216.558 10.2022Z" fill="white"/>
<path d="M13.7743 26.9136C10.8468 26.9136 8.46909 29.2953 8.46909 32.2208C8.46909 35.1464 10.8475 37.5273 13.7743 37.5273C16.7018 37.5273 19.0802 35.1464 19.0802 32.2215C19.0815 29.2953 16.7018 26.9136 13.7743 26.9136V26.9136Z" fill="#374931"/>
<path d="M13.7724 18.4498C6.17811 18.4498 0 24.6266 0 32.2221C0 39.8171 6.17876 45.9965 13.7724 45.9965C21.3679 45.9965 27.5493 39.8164 27.5493 32.2221C27.5499 24.6266 21.3679 18.4498 13.7724 18.4498V18.4498ZM13.7743 39.9783C9.49801 39.9783 6.01817 36.4997 6.01817 32.2215C6.01817 27.9432 9.49737 24.4641 13.7743 24.4641C18.0513 24.4641 21.5305 27.9439 21.5305 32.2215C21.5305 36.4991 18.0513 39.9783 13.7743 39.9783ZM54.9412 26.3749C49.5311 26.3749 45.1337 30.7749 45.1337 36.1838C45.1337 41.5932 49.5304 45.9952 54.9412 45.9952C60.3494 45.9952 64.7526 41.5932 64.7526 36.1838C64.7533 30.7749 60.3494 26.3749 54.9412 26.3749V26.3749ZM54.9412 40.8007C54.335 40.8007 53.7347 40.6814 53.1746 40.4494C52.6144 40.2175 52.1055 39.8775 51.6768 39.4488C51.2482 39.0201 50.9081 38.5112 50.6762 37.9511C50.4442 37.391 50.3249 36.7906 50.325 36.1844C50.3249 35.5782 50.4442 34.978 50.6762 34.4179C50.9082 33.8579 51.2482 33.3491 51.6769 32.9205C52.1056 32.4919 52.6145 32.152 53.1747 31.9202C53.7348 31.6884 54.335 31.5692 54.9412 31.5694C56.1654 31.5694 57.3394 32.0557 58.205 32.9213C59.0705 33.7869 59.5568 34.9609 59.5568 36.185C59.5568 37.4092 59.0705 38.5832 58.205 39.4488C57.3394 40.3144 56.1654 40.8007 54.9412 40.8007Z" fill="#374931"/>
<path d="M46.9915 27.3093C44.9401 25.7041 41.6383 23.722 37.1619 22.7474V21.5029C42.188 22.5337 45.8136 24.7496 47.9867 26.5025C49.9468 25.0857 52.344 24.2406 54.9412 24.2406C56.3502 24.2406 57.6958 24.499 58.9481 24.951C58.8167 21.8758 58.4366 18.6369 57.4122 18.249C52.3705 16.3718 45.8013 15.249 40.5038 14.775V5.01084C40.5038 3.64002 41.187 3.32208 41.2828 3.28323C41.5953 3.19495 41.8599 2.98617 42.0184 2.7028C42.1769 2.41942 42.2164 2.08468 42.1282 1.77221C42.0399 1.45973 41.8311 1.19512 41.5477 1.03659C41.2643 0.878055 40.9296 0.838582 40.6171 0.926855C39.6646 1.19688 38.0536 2.3579 38.0536 5.01084V14.5937C37.6786 14.5723 37.3251 14.5594 36.9735 14.5451L34.1075 2.21415C34.0532 1.98031 33.9314 1.76759 33.7572 1.60239C33.583 1.43719 33.3641 1.3268 33.1278 1.28494C32.5372 1.18133 18.5447 -1.25145 8.02033 0.867281C7.70185 0.931653 7.42188 1.11965 7.24176 1.39007C7.06164 1.6605 6.99606 1.9913 7.05939 2.30998C7.0907 2.46798 7.15294 2.61822 7.24255 2.75206C7.33216 2.8859 7.44736 3.0007 7.58151 3.08983C7.71567 3.17897 7.86613 3.24068 8.02423 3.27143C8.18234 3.30218 8.34496 3.30134 8.50274 3.26898C8.64909 3.23984 8.80126 3.21977 8.94825 3.19257L7.01601 14.4324C7.01277 14.4558 7.02119 14.4791 7.01795 14.5043H6.58346C4.26788 14.5043 3.80684 15.9975 3.80684 15.9975L2.38809 19.5538L3.56725 20.1398C6.32509 17.8061 9.88652 16.3912 13.7717 16.3912C22.5043 16.3912 29.6058 23.4947 29.6058 32.2228C29.6036 33.715 29.389 35.1993 28.9687 36.6312H43.0603C43.0544 36.4693 43.0363 36.31 43.0363 36.1455C43.0363 32.6378 44.569 29.4908 46.9915 27.3093V27.3093ZM51.6686 18.7204C51.8201 18.6619 51.9886 18.6655 52.1376 18.7303C52.2865 18.7952 52.4039 18.9161 52.4644 19.0668L53.4577 21.5993C53.5165 21.7506 53.5131 21.919 53.4481 22.0677C53.3832 22.2164 53.2621 22.3334 53.1113 22.3932C52.9599 22.452 52.7915 22.4486 52.6426 22.3837C52.4938 22.3188 52.3767 22.1977 52.3168 22.0468L51.3221 19.5143C51.263 19.3631 51.2663 19.1945 51.3312 19.0457C51.3962 18.8969 51.5175 18.7799 51.6686 18.7204V18.7204ZM48.7819 18.7204C48.9332 18.662 49.1014 18.6656 49.25 18.7305C49.3987 18.7953 49.5157 18.9162 49.5758 19.0668L50.5704 21.5993C50.6289 21.7507 50.6253 21.9191 50.5603 22.0677C50.4953 22.2164 50.3742 22.3334 50.2233 22.3932C50.0719 22.4526 49.9031 22.4494 49.754 22.3845C49.605 22.3195 49.4877 22.1981 49.4281 22.0468L48.4348 19.5143C48.4054 19.4394 48.391 19.3594 48.3925 19.2789C48.394 19.1985 48.4114 19.1191 48.4436 19.0453C48.4759 18.9716 48.5224 18.9049 48.5804 18.8492C48.6384 18.7934 48.7069 18.7497 48.7819 18.7204V18.7204ZM20.0431 15.1117C19.0802 14.7964 18.1503 14.5691 17.3338 14.5043H9.49023L11.3001 3.97738H20.0431V15.1117V15.1117ZM34.7103 24.545L30.2728 24.5398C28.7997 20.5847 25.6423 17.7588 22.492 16.1257V3.97803H32.0017L34.709 15.633V24.5456H34.7103V24.545Z" fill="#374931"/>
<path d="M78.32 38.2396H80.0113C81.0758 38.2396 81.735 37.6182 81.735 36.624C81.735 35.6405 81.0758 35.0137 80.0113 35.0137H77.7526V40.0228H78.32V38.2396ZM79.9735 35.5541C80.757 35.5541 81.1676 35.9593 81.1676 36.624C81.1676 37.2994 80.757 37.7101 79.9735 37.7101H78.32V35.5541H79.9735ZM86.2902 35.0137V40.0228H89.5863V39.477H86.8575V35.0137H86.2902ZM96.1083 34.9543C94.5846 34.9543 93.5633 36.0944 93.5633 37.521C93.5633 38.9421 94.5846 40.0822 96.1083 40.0822C97.6267 40.0822 98.648 38.9421 98.648 37.521C98.648 36.0944 97.6267 34.9543 96.1083 34.9543ZM96.1083 39.5311C94.8871 39.5311 94.1307 38.6449 94.1307 37.521C94.1307 36.3916 94.8871 35.5054 96.1083 35.5054C97.3241 35.5054 98.0806 36.3916 98.0806 37.521C98.0806 38.6449 97.3241 39.5311 96.1083 39.5311ZM106.683 35.0137H102.62V35.5595H104.37V40.0228H104.938V35.5595H106.683V35.0137ZM114.74 35.0137H110.676V35.5595H112.427V40.0228H112.994V35.5595H114.74V35.0137ZM119.808 35.0137H119.241V40.0228H119.808V35.0137ZM128.567 35.0137V39.2285L125.476 35.0137H124.817V40.0228H125.385V35.7918L128.475 40.0228H129.135V35.0137H128.567ZM136.294 34.9543C134.787 34.9543 133.825 36.0944 133.825 37.521C133.825 38.9421 134.749 40.0822 136.278 40.0822C137.186 40.0822 137.775 39.6229 138.094 39.1366V40.0228H138.612V37.3588H136.262V37.8722H138.094C138.094 38.9205 137.229 39.5311 136.321 39.5311C135.105 39.5311 134.392 38.6449 134.392 37.521C134.392 36.3916 135.122 35.5054 136.337 35.5054C137.099 35.5054 137.645 35.8405 137.948 36.3754H138.569C138.196 35.5379 137.364 34.9543 136.294 34.9543ZM153.002 35.0137L151.24 37.3913L149.446 35.0137H148.787V40.0228H149.355V35.8783L151.24 38.2612L153.094 35.8783V40.0228H153.661V35.0137H153.002ZM160.918 35.0137H160.205L158.081 40.0228H158.708L159.319 38.5692H161.799L162.415 40.0228H163.042L160.918 35.0137ZM159.54 38.0505L160.561 35.6027L161.583 38.0505H159.54ZM169.569 35.0137H167.462V40.0228H169.569C170.763 40.0228 171.871 39.0826 171.871 37.521C171.871 35.9539 170.763 35.0137 169.569 35.0137ZM169.547 39.4878H168.029V35.5541H169.547C170.612 35.5541 171.304 36.4457 171.304 37.521C171.304 38.5908 170.612 39.4878 169.547 39.4878ZM180.252 35.5595V35.0137H176.567V40.0228H180.252V39.477H177.134V37.7911H179.917V37.24H177.134V35.5595H180.252ZM194.025 35.5595V35.0137H190.346V40.0228H194.025V39.477H190.913V37.7911H193.696V37.24H190.913V35.5595H194.025ZM200.974 35.0137H200.261L198.137 40.0228H198.764L199.375 38.5692H201.855L202.471 40.0228H203.098L200.974 35.0137ZM199.596 38.0505L200.618 35.6027L201.639 38.0505H199.596ZM207.847 36.3322C207.847 35.9972 208.047 35.4838 209.182 35.4838C210.095 35.4838 210.517 35.8837 210.582 36.3862H211.16C211.117 35.6351 210.511 34.9543 209.182 34.9543C207.923 34.9543 207.296 35.5217 207.296 36.3376C207.296 38.0559 210.722 37.4345 210.722 38.6611C210.722 39.2501 210.193 39.5473 209.344 39.5473C208.474 39.5473 207.772 39.2501 207.734 38.526H207.145C207.221 39.423 207.826 40.0822 209.306 40.0822C210.544 40.0822 211.29 39.5689 211.29 38.6395C211.29 36.8887 207.847 37.4939 207.847 36.3322ZM217.903 38.0397L220 35.0137H219.308L217.617 37.4507L215.92 35.0137H215.234L217.336 38.0397V40.0228H217.903V38.0397Z" fill="white"/>
</svg>
